<svg id="Capa_1" enable-background="new 0 0 512 512" height="512" viewBox="0 0 512 512" width="512" xmlns="http://www.w3.org/2000/svg"><g><g><g><path d="m194.91 134.092h256.24v354.907c0 8.285-6.716 15.001-15.001 15.001h-226.238c-8.285 0-15.001-6.716-15.001-15.001z" fill="#85cf99"/><path d="m184.887 134.092h276.285c5.523 0 10.001-4.477 10.001-10.001v-30.375c0-5.523-4.477-10.001-10.001-10.001h-276.285c-5.523 0-10.001 4.477-10.001 10.001v30.375c.001 5.523 4.478 10.001 10.001 10.001z" fill="#b1e7a1"/><path d="m461.172 116.092h-276.285c-5.523 0-10.001-4.477-10.001-10.001v18c0 5.523 4.478 10.001 10.001 10.001h276.285c5.523 0 10.001-4.477 10.001-10.001v-18c0 5.523-4.478 10.001-10.001 10.001z" fill="#97d4a8"/><path d="m301.483 49.498h40.291v34.217h-40.291z" fill="#cc353e"/><g fill="#ff4d54"><path d="m341.774 49.498s37.942-51.675 58.712-39.697c23.142 13.346 15.989 73.914 15.989 73.914h-74.701z"/><path d="m301.483 49.498s-37.942-51.675-58.712-39.697c-23.142 13.346-15.989 73.914-15.989 73.914h74.702v-34.217z"/><path d="m301.483 83.715h40.291v50.376h-40.291z" transform="matrix(-1 0 0 -1 643.257 217.807)"/></g><path d="m301.483 116.092h40.291v18h-40.291z" fill="#ea4955"/><path d="m301.483 134.092h40.291v369.908h-40.291z" fill="#cc353e" transform="matrix(-1 0 0 -1 643.257 638.092)"/><path d="m301.483 65.716h40.291v18h-40.291z" fill="#c12131"/><path d="m225.755 65.716c.131 10.402 1.027 18 1.027 18h74.702v-18z" fill="#ea4955"/><path d="m341.774 65.716v18h74.701s.896-7.598 1.027-18z" fill="#ea4955"/></g><g><path d="m18.001 303.722h313.772c5.523 0 10.001-4.477 10.001-10.001v-30.5c0-5.523-4.477-10.001-10.001-10.001h-313.772c-5.524.001-10.001 4.478-10.001 10.001v30.5c0 5.524 4.477 10.001 10.001 10.001z" fill="#ffa5d5"/><path d="m331.773 285.722h-313.772c-5.524 0-10.001-4.477-10.001-10.001v18c0 5.523 4.477 10.001 10.001 10.001h313.772c5.523 0 10.001-4.478 10.001-10.001v-18c0 5.524-4.478 10.001-10.001 10.001z" fill="#ff92d0"/><path d="m25.029 303.722h299.716v185.277c0 8.285-6.716 15.001-15.001 15.001h-269.714c-8.285 0-15.001-6.716-15.001-15.001z" fill="#f786cb"/><path d="m309.744 486h-269.715c-8.285 0-15.001-6.716-15.001-15.001v18c0 8.285 6.716 15.001 15.001 15.001h269.715c8.285 0 15.001-6.716 15.001-15.001v-18c0 8.285-6.716 15.001-15.001 15.001z" fill="#ef78c2"/><path d="m154.738 253.221h40.298v50.501h-40.298z" fill="#ff4d54" transform="matrix(-1 0 0 -1 349.774 556.943)"/><path d="m154.738 285.722h40.298v18h-40.298z" fill="#ea4955"/><path d="m154.738 303.722h40.298v200.278h-40.298z" fill="#cc353e" transform="matrix(-1 0 0 -1 349.774 807.722)"/><path d="m154.738 486h40.298v18h-40.298z" fill="#c12131"/><path d="m154.761 217.874h40.269v35.335h-40.269z" fill="#cc353e"/><path d="m195.029 217.886s38.098-53.363 58.825-40.994c23.094 13.782 15.975 76.329 15.975 76.329h-74.799v-35.335z" fill="#ff4d54"/><path d="m154.761 217.863s-38.115-53.34-58.841-40.971c-23.094 13.782-15.975 76.329-15.975 76.329l74.816-.023z" fill="#ff4d54"/><path d="m195.029 235.221v18h74.799s.859-7.56 1.012-18z" fill="#ea4955"/><path d="m154.761 235.221v17.977l40.268.023v-18z" fill="#c12131"/><path d="m78.933 235.221c.152 10.44 1.012 18 1.012 18l74.816-.023v-17.977z" fill="#ea4955"/></g><g><path d="m262.749 390.737h231.251c5.523 0 10.001-4.477 10.001-10.001v-25.207c0-5.523-4.477-10.001-10.001-10.001h-231.251c-5.523 0-10.001 4.477-10.001 10.001v25.207c0 5.523 4.477 10.001 10.001 10.001z" fill="#ffde8f"/><path d="m494 372.737h-231.251c-5.523 0-10.001-4.477-10.001-10.001v18c0 5.523 4.477 10.001 10.001 10.001h231.251c5.523 0 10-4.477 10-10.001v-18c0 5.523-4.478 10.001-10 10.001z" fill="#f9cd7f"/><path d="m269.238 390.737h218.272v98.262c0 8.285-6.716 15.001-15.001 15.001h-188.27c-8.285 0-15.001-6.716-15.001-15.001z" fill="#fcc07e"/><path d="m472.509 486h-188.27c-8.285 0-15.001-6.716-15.001-15.001v18c0 8.285 6.716 15.001 15.001 15.001h188.27c8.285 0 15.001-6.716 15.001-15.001v-18c0 8.285-6.716 15.001-15.001 15.001z" fill="#f9b067"/><path d="m358.862 309.932h39.023v35.596h-39.023z" fill="#cc353e" transform="matrix(-1 0 0 -1 756.748 655.461)"/><g fill="#ff4d54"><path d="m358.862 309.932s-31.249-39.99-48.154-25.275c-17.42 15.164-11.943 60.871-11.943 60.871h60.097z"/><path d="m397.886 309.932s31.249-39.99 48.154-25.275c17.42 15.164 11.943 60.871 11.943 60.871h-60.097z"/><path d="m358.862 345.528h39.023v45.208h-39.023z" transform="matrix(-1 0 0 -1 756.748 736.265)"/></g><path d="m358.862 372.737h39.023v18h-39.023z" fill="#ea4955"/><path d="m358.862 390.737h39.023v113.263h-39.023z" fill="#cc353e" transform="matrix(-1 0 0 -1 756.748 894.737)"/><path d="m358.862 486h39.023v18h-39.023z" fill="#c12131"/><path d="m297.962 327.528c-.129 10.211.803 18 .803 18h60.097v-18z" fill="#ea4955"/><path d="m358.862 327.528h39.023v18h-39.023z" fill="#c12131"/><path d="m397.886 345.528h60.097s.932-7.789.803-18h-60.9z" fill="#ea4955"/></g></g><path d="m494.465 338.198h-27.928c.655-12.067.467-33.875-7.491-49.076v-147.735h2.527c9.669 0 17.535-7.866 17.535-17.534v-30.433c0-9.668-7.866-17.534-17.535-17.534h-36.578c1.212-18.582 1.343-60.47-20.472-73.05-11.849-6.832-27.37-1.304-46.135 16.435-8.994 8.502-16.52 17.679-20.162 22.333h-32.94c-3.642-4.653-11.168-13.831-20.162-22.333-18.764-17.739-34.285-23.268-46.134-16.435-21.814 12.58-21.683 54.468-20.471 73.05h-33.77c-9.669 0-17.535 7.866-17.535 17.534v30.433c0 9.668 7.866 17.534 17.535 17.534h2.527v68.921l-28.935-.016c-3.648-4.792-11.204-14.267-20.23-23.046-18.859-18.344-34.46-24.045-46.357-16.943-21.78 12.998-21.554 56.438-20.339 75.413h-53.886c-9.665-.002-17.529 7.867-17.529 17.538v30.546c0 9.513 7.614 17.265 17.062 17.516v38.011c0 4.15 3.364 7.514 7.515 7.514s7.515-3.364 7.515-7.514v-37.987h114.934v185.631h-107.428c-4.139 0-7.507-3.375-7.507-7.524v-110.062c0-4.15-3.364-7.514-7.515-7.514s-7.515 3.364-7.515 7.514v110.062c0 12.436 10.11 22.553 22.536 22.553h433.335c12.432 0 22.545-10.113 22.545-22.544v-90.986c9.197-.529 16.522-8.156 16.522-17.482v-25.255c.001-9.67-7.865-17.535-17.534-17.535zm-347.44-41.886h-129.496c-1.379 0-2.5-1.127-2.5-2.511v-30.546c0-1.385 1.121-2.512 2.5-2.512h129.495v35.569zm.023-50.618-60.527.019c-.383-6.013-.723-15.402-.082-25.259 1.286-19.775 5.909-33.003 13.019-37.246.969-.578 2.092-.85 3.344-.85 10.823 0 31.238 20.275 44.246 37.889zm304.445 92.504h-45.815v-25.496c7.833-9.436 21.858-22.797 31.126-23.68 1.959-.185 3.356.224 4.673 1.371 9.183 7.993 10.994 31.264 10.016 47.805zm-102.037-286.582c14.469-19.029 38.139-41.198 47.559-35.761 12.41 7.156 14.51 38.2 12.934 60.031h-60.493zm0 39.298h112.117c1.382 0 2.506 1.124 2.506 2.506v30.433c0 1.382-1.124 2.505-2.506 2.505h-112.117zm-40.369-34.282h25.34v19.254h-25.34zm0 34.282h25.34v35.444h-25.34zm22.841 169.829c1.378 0 2.499 1.127 2.499 2.512v14.913c-4.13-2.177-8.383-3.703-12.563-4.104-6.047-.578-11.565 1.149-15.981 4.994-4.998 4.35-8.431 10.464-10.771 17.255h-92.68v-35.569h129.496zm-53.887-15.029c1.215-18.975 1.441-62.415-20.34-75.413-11.902-7.099-27.496-1.398-46.351 16.957-3.244 3.158-6.294 6.404-9.045 9.492v-55.364h91.752v104.327h-16.016zm-44.49-194.035c1.277-19.023 5.875-31.746 12.948-35.825 9.43-5.437 33.091 16.732 47.559 35.761v24.27h-60.432c-.379-5.816-.706-14.791-.075-24.206zm-48.802 74.679c-1.382 0-2.506-1.124-2.506-2.505v-30.433c0-1.382 1.124-2.506 2.506-2.506h109.309v35.444zm-22.672 98.964 25.318.014v20.374l-25.318-.014zm25.325 271.649h-25.348v-185.631h25.348zm0-200.659h-25.348v-35.569h25.348zm15.023-76.045c14.507-19.66 38.23-42.637 47.574-37.06 12.504 7.461 14.599 39.849 12.997 62.507h-60.571zm.007 276.704v-185.631h89.207c-1.418 10.097-1.319 20.035-.949 26.857h-27.928c-9.668 0-17.534 7.866-17.534 17.534v25.255c0 9.327 7.326 16.954 16.523 17.483v90.986c0 2.635.458 5.163 1.293 7.515h-60.612zm149.117 0h-67.254c-4.144 0-7.516-3.371-7.516-7.515v-90.935h74.77zm0-113.479h-88.788c-1.382 0-2.505-1.124-2.505-2.505v-25.255c0-1.382 1.123-2.505 2.505-2.505h88.788zm0-45.294h-45.815c-.977-16.543.834-39.812 10.016-47.805 1.318-1.148 2.718-1.556 4.673-1.371 9.268.883 23.293 14.244 31.126 23.68zm-2.093-49.254v-83.993c0-4.15-3.364-7.514-7.515-7.514s-7.515 3.364-7.515 7.514v40.763h-25.34v-104.327h25.34v33.507c0 4.15 3.364 7.514 7.515 7.514s7.515-3.364 7.515-7.514v-33.507h94.561v133.534c-2.702-.853-5.609-1.148-8.654-.858-16.547 1.587-34.272 20.775-40.765 28.471h-31.969c-2.721-3.225-7.42-8.469-13.173-13.59zm17.122 49.254v-20.635h24.07v20.635zm24.071 15.028v30.266h-24.07v-30.266zm89.799 136.23c0 4.144-3.372 7.515-7.516 7.515h-67.254v-34.197c0-4.15-3.364-7.514-7.515-7.514s-7.515 3.364-7.515 7.514v34.197h-24.07v-98.45h24.07v34.196c0 4.15 3.364 7.514 7.515 7.514s7.515-3.364 7.515-7.514v-34.196h74.77zm16.523-108.469c0 1.382-1.124 2.505-2.506 2.505h-88.787v-30.266h88.787c1.382 0 2.506 1.124 2.506 2.505z"/></g></svg>